<svg class="border shadow-md" viewBox="0 0 1351.68 760.32" style="width: 1351.68px; height: 760.32px;" xmlns="http://www.w3.org/2000/svg" preserveAspectRatio="none"><rect class="bg" id="bg" x="0" y="0" width="1351.68" height="760.32" fill="#ffffff"></rect><path d="M 0 -76.03200000000001 L 0 -76.03
                L 180.00 -38.02
                L 270.336 -76.03 L 270.336 -76.03
                L 433.34 -9.03
                L 540.672 -76.03 L 540.672 -76.03
                L 661.67 -16.03
                L 811.008 -76.03 L 811.008 -76.03
                L 1002.01 -38.02
                L 1081.344 -76.03 L 1081.344 -76.03
                L 1223.34 -3.03
                L 1351.68 -76.03 L 1351.68 -76.03
                L 1441.79 -5.03
                L 1622.016 -76.03  V 760.32 H 0 V -76.03 Z" fill="#2B2DF1"></path><path d="M 0 0 L 0 0.00
                L 134.00 38.02
                L 270.336 0.00 L 270.336 0.00
                L 415.34 63.00
                L 540.672 0.00 L 540.672 0.00
                L 728.67 56.00
                L 811.008 0.00 L 811.008 0.00
                L 901.12 44.00
                L 1081.344 0.00 L 1081.344 0.00
                L 1262.34 38.02
                L 1351.68 0.00 L 1351.68 0.00
                L 1465.68 70.00
                L 1622.016 0.00  V 760.32 H 0 V 0.00 Z" fill="#2c29e3"></path><path d="M 0 76.03200000000001 L 0 76.03
                L 90.11 149.03
                L 270.336 76.03 L 270.336 76.03
                L 452.34 150.03
                L 540.672 76.03 L 540.672 76.03
                L 630.78 114.05
                L 811.008 76.03 L 811.008 76.03
                L 967.01 114.05
                L 1081.344 76.03 L 1081.344 76.03
                L 1226.34 114.05
                L 1351.68 76.03 L 1351.68 76.03
                L 1537.68 144.03
                L 1622.016 76.03  V 760.32 H 0 V 76.03 Z" fill="#2d25d5"></path><path d="M 0 152.06400000000002 L 0 152.06
                L 140.00 205.06
                L 270.336 152.06 L 270.336 152.06
                L 376.34 190.08
                L 540.672 152.06 L 540.672 152.06
                L 630.78 226.06
                L 811.008 152.06 L 811.008 152.06
                L 957.01 226.06
                L 1081.344 152.06 L 1081.344 152.06
                L 1189.34 190.08
                L 1351.68 152.06 L 1351.68 152.06
                L 1449.68 191.06
                L 1622.016 152.06  V 760.32 H 0 V 152.06 Z" fill="#2e21c7"></path><path d="M 0 228.09600000000003 L 0 228.10
                L 144.00 266.11
                L 270.336 228.10 L 270.336 228.10
                L 360.45 266.11
                L 540.672 228.10 L 540.672 228.10
                L 707.67 290.10
                L 811.008 228.10 L 811.008 228.10
                L 978.01 286.10
                L 1081.344 228.10 L 1081.344 228.10
                L 1171.46 266.11
                L 1351.68 228.10 L 1351.68 228.10
                L 1446.68 266.11
                L 1622.016 228.10  V 760.32 H 0 V 228.10 Z" fill="#2f1db9"></path><path d="M 0 304.12800000000004 L 0 304.13
                L 90.11 342.14
                L 270.336 304.13 L 270.336 304.13
                L 459.34 342.14
                L 540.672 304.13 L 540.672 304.13
                L 674.67 342.14
                L 811.008 304.13 L 811.008 304.13
                L 923.01 377.13
                L 1081.344 304.13 L 1081.344 304.13
                L 1171.46 374.13
                L 1351.68 304.13 L 1351.68 304.13
                L 1441.79 376.13
                L 1622.016 304.13  V 760.32 H 0 V 304.13 Z" fill="#3019ab"></path><path d="M 0 380.1600000000001 L 0 380.16
                L 121.00 418.18
                L 270.336 380.16 L 270.336 380.16
                L 439.34 418.18
                L 540.672 380.16 L 540.672 380.16
                L 630.78 425.16
                L 811.008 380.16 L 811.008 380.16
                L 969.01 434.16
                L 1081.344 380.16 L 1081.344 380.16
                L 1171.46 422.16
                L 1351.68 380.16 L 1351.68 380.16
                L 1537.68 422.16
                L 1622.016 380.16  V 760.32 H 0 V 380.16 Z" fill="#31159d"></path><path d="M 0 456.19200000000006 L 0 456.19
                L 157.00 494.21
                L 270.336 456.19 L 270.336 456.19
                L 361.34 504.19
                L 540.672 456.19 L 540.672 456.19
                L 630.78 494.21
                L 811.008 456.19 L 811.008 456.19
                L 901.12 501.19
                L 1081.344 456.19 L 1081.344 456.19
                L 1176.34 494.21
                L 1351.68 456.19 L 1351.68 456.19
                L 1471.68 511.19
                L 1622.016 456.19  V 760.32 H 0 V 456.19 Z" fill="#32118f"></path><path d="M 0 532.224 L 0 532.22
                L 133.00 570.24
                L 270.336 532.22 L 270.336 532.22
                L 463.34 579.22
                L 540.672 532.22 L 540.672 532.22
                L 722.67 570.24
                L 811.008 532.22 L 811.008 532.22
                L 947.01 606.22
                L 1081.344 532.22 L 1081.344 532.22
                L 1171.46 599.22
                L 1351.68 532.22 L 1351.68 532.22
                L 1509.68 570.24
                L 1622.016 532.22  V 760.32 H 0 V 532.22 Z" fill="#330d81"></path><path d="M 0 608.2560000000001 L 0 608.26
                L 119.00 646.27
                L 270.336 608.26 L 270.336 608.26
                L 403.34 682.26
                L 540.672 608.26 L 540.672 608.26
                L 689.67 646.27
                L 811.008 608.26 L 811.008 608.26
                L 970.01 655.26
                L 1081.344 608.26 L 1081.344 608.26
                L 1233.34 646.27
                L 1351.68 608.26 L 1351.68 608.26
                L 1441.79 675.26
                L 1622.016 608.26  V 760.32 H 0 V 608.26 Z" fill="#340973"></path><path d="M 0 684.2880000000001 L 0 684.29
                L 90.11 722.30
                L 270.336 684.29 L 270.336 684.29
                L 360.45 757.29
                L 540.672 684.29 L 540.672 684.29
                L 630.78 744.29
                L 811.008 684.29 L 811.008 684.29
                L 901.12 722.30
                L 1081.344 684.29 L 1081.344 684.29
                L 1171.46 733.29
                L 1351.68 684.29 L 1351.68 684.29
                L 1498.68 722.30
                L 1622.016 684.29  V 760.32 H 0 V 684.29 Z" fill="#350565"></path></svg>